<svg width="477" height="481" viewBox="0 0 477 481" fill="none" xmlns="http://www.w3.org/2000/svg">
<path d="M97.39 209.12C97.39 209.12 70.8518 130.595 163.417 140.179C255.983 149.763 211.756 115.007 246.734 93.438C281.713 71.8693 384.774 138.972 341.657 203.693C298.539 268.414 410.563 209.209 433.932 306.537C448.352 366.599 412.575 410.807 383.059 435.866" stroke="#CCDDE2" stroke-width="5.47" stroke-miterlimit="10"/>
<path d="M392.086 360.828C385.13 320.545 360.499 284.497 320.482 271.595C310.246 268.313 299.778 265.8 289.167 264.077V264.131C288.614 267.475 287.304 270.649 285.336 273.409C281.166 279.123 275.417 283.816 268.762 286.262C261.968 288.776 253.553 289.101 247.247 285.148C243.451 282.771 239.768 278.586 239.103 274.07C238.344 268.982 240.937 264.165 244.585 260.803C213.664 261.055 184.577 266.142 161.268 271.935C162.076 275.318 163.195 278.618 164.611 281.795C166.592 286.224 169.392 290.238 172.863 293.627C177.193 289.338 180.985 284.537 184.153 279.33C187.184 280.322 189.857 282.184 191.839 284.683C193.82 287.182 195.024 290.208 195.3 293.386V293.548C196.523 305.089 185.41 313.761 176.073 319.096C165.286 325.297 153.262 329.942 141.449 333.802C136.579 335.399 130.249 336.76 125.107 335.093C124.553 334.917 124.013 334.701 123.489 334.448C118.362 331.933 114.931 326.663 112.254 321.846C104.627 308.166 99.6677 293.252 96.3055 277.945C72.9718 280.927 70.2997 265.127 68.9144 261.252L48.9528 317.055C47.9057 321.066 47.7928 325.263 48.6215 329.325C49.4507 333.387 51.2004 337.205 53.7359 340.485C56.2709 343.765 59.5247 346.42 63.2464 348.246C66.9685 350.072 71.0594 351.02 75.2051 351.017H157.842L195.379 447.3L206.018 474.627H266.785C261.855 474.627 259.158 473.424 257.201 471.462C255.18 469.44 254.042 466.699 254.036 463.84C254.036 457.924 258.892 453.073 266.785 453.073H267.342C266.745 453.073 266.174 453.019 265.577 452.965C265.947 452.925 266.314 452.864 266.676 452.782C266.285 452.773 265.895 452.743 265.508 452.694C269.068 452.273 272.367 450.615 274.828 448.009C277.289 445.403 278.756 442.014 278.972 438.436C278.982 438.25 278.982 438.064 278.972 437.879V437.593C278.887 433.925 277.484 430.409 275.022 427.689C272.559 424.969 269.199 423.226 265.557 422.778C265.971 422.744 266.366 422.709 266.765 422.709C266.405 422.621 266.006 422.566 265.631 422.512C266.223 422.458 266.819 422.418 267.391 422.418L311.85 422.655L320.029 422.69H329.736C330.185 422.69 330.638 422.69 331.067 422.744L345.487 422.818L355.121 422.872C359.147 422.906 362.995 424.532 365.825 427.397C368.655 430.261 370.235 434.129 370.221 438.155C370.216 440.432 369.688 442.676 368.678 444.717C372.811 444.188 376.644 442.277 379.554 439.294C386.49 432.209 389.478 421.605 391.543 412.179C395.197 395.387 394.98 377.693 392.086 360.828ZM279.761 361.962C271.385 374.854 257.122 373.695 257.122 373.695C257.122 373.695 255.939 374.849 253.178 369.939C250.417 365.028 242.554 361.671 242.554 361.671C241.928 366.601 240.631 374.095 227.764 364.383C214.897 354.67 218.777 340.511 219.876 333.033C220.975 325.554 225.358 323.074 225.358 323.074L230.535 320.343C230.535 320.343 215.562 316.492 214.842 316.35C214.123 316.207 200.787 305.04 214.32 302.092C227.853 299.144 248.948 310.867 253.025 313.184C257.102 315.502 280.929 335.655 280.929 335.655C280.929 335.655 288.181 349.09 279.761 361.962Z" fill="#353642"/>
<path d="M96.2856 277.954C96.2856 277.954 107.57 276.583 111.795 268.527L108.113 289.189C108.113 289.189 153.005 273.906 161.238 271.934C161.238 271.934 163.891 289.036 174.451 293.626L185.346 279.773C185.346 279.773 199.007 283.224 195.27 301.839C191.533 320.455 139.847 336.014 131.082 335.654C122.316 335.294 112.88 329.901 103.217 300.917L96.2856 277.954Z" fill="#353642"/>
<path d="M114.67 231.928C117.529 236.582 120.403 241.226 123.371 245.811C125.2 248.636 128.533 252.663 124.988 255.616C123.835 256.501 122.441 257.017 120.99 257.095C118.712 257.298 116.321 256.75 114.936 254.793L108.034 243.355C106.658 241.074 104.474 239.395 101.916 238.651C99.358 237.908 96.614 238.155 94.2299 239.342" stroke="black" stroke-width="5.47" stroke-miterlimit="10"/>
<path d="M140.774 246.992C142.578 251.281 141.356 254.047 139.246 255.437C135.795 257.7 131.175 256.615 128.73 253.312L114.694 231.951" stroke="black" stroke-width="5.47" stroke-miterlimit="10"/>
<path d="M126.551 225.716C131.658 231.928 138.102 243.464 141.666 248.281C145.231 253.097 150.743 250.193 150.743 250.193C155.219 247.783 154.46 243.784 152.503 238.928C147.681 227.008 140.799 219.08 133.123 213.884C109.335 197.792 84.932 209.664 77.6701 237.44L48.9528 317.054C47.9057 321.066 47.7928 325.264 48.6215 329.325C49.4507 333.387 51.2004 337.205 53.7359 340.485C56.2709 343.765 59.5247 346.42 63.2464 348.246C66.9685 350.071 71.0594 351.019 75.2051 351.017H157.842L206.032 474.632" stroke="black" stroke-width="5.47" stroke-miterlimit="10"/>
<path d="M156.057 233.46C161.973 231.409 161.702 221.973 153.306 218.789C144.033 215.269 127.567 210.289 123.43 209.047C123.405 209.027 123.374 209.015 123.342 209.012C123.051 208.924 122.849 208.85 122.691 208.815L122.459 208.741" stroke="black" stroke-width="5.47" stroke-miterlimit="10"/>
<path d="M243.466 327.805C238.289 321.584 224.121 318.059 214.872 316.353C213.318 316.061 211.9 315.272 210.833 314.104C209.766 312.937 209.107 311.455 208.956 309.88C208.848 308.818 208.971 307.745 209.316 306.735C209.867 305.183 210.924 303.862 212.315 302.982C213.707 302.103 215.354 301.716 216.992 301.883C232.768 303.481 249.037 308.445 261.071 319.138C261.071 319.138 319.408 363.656 326.374 367.99C329.248 369.735 331.93 367.674 329.983 364.933L329.371 363.888C325.942 358.004 321.884 352.509 317.268 347.501" stroke="black" stroke-width="5.47" stroke-miterlimit="10"/>
<path d="M244.546 260.797C171.177 261.408 108.113 289.184 108.113 289.184L114.408 253.895" stroke="black" stroke-width="5.47" stroke-miterlimit="10"/>
<path d="M358.498 452.855C358.498 452.855 350.506 451.045 348.381 457.445C346.256 463.844 344.038 474.024 359.316 474.626C374.594 475.227 365.621 472.225 364.739 467.28C363.856 462.335 358.498 452.855 358.498 452.855Z" fill="#353642"/>
<path d="M236.416 335.926C236.416 335.926 227.793 329.389 220.029 336.015C219.702 336.303 219.416 336.635 219.181 337.001" stroke="black" stroke-width="5.47" stroke-miterlimit="10"/>
<g opacity="0.77">
<path opacity="0.77" d="M128.7 253.289C131.165 256.598 135.78 257.677 139.216 255.409C141.302 254.029 142.524 251.278 140.764 247.028C141.085 247.497 141.376 247.911 141.661 248.29C145.221 253.127 150.738 250.213 150.738 250.213C155.214 247.802 154.46 243.804 152.503 238.943C150.587 234.129 148.074 229.574 145.024 225.386C147.02 223.517 149.392 221.629 151.891 222.457C154.588 223.355 155.342 226.737 155.648 229.556C155.791 230.868 155.934 232.164 156.077 233.476L158.236 252.782C158.956 259.191 159.676 265.693 161.238 271.95C162.047 275.332 163.165 278.633 164.581 281.81C166.562 286.238 169.362 290.253 172.834 293.642C177.164 289.352 180.955 284.551 184.124 279.345C187.155 280.336 189.828 282.198 191.809 284.697C193.791 287.196 194.995 290.222 195.27 293.4V293.563C196.493 305.104 185.381 313.776 176.043 319.11C165.256 325.312 153.232 329.956 141.42 333.816C136.549 335.413 130.219 336.774 125.077 335.108C124.523 334.931 123.983 334.715 123.46 334.462C118.333 331.948 114.901 326.677 112.224 321.861C99.4064 298.813 94.082 272.349 91.2769 246.141C96.8872 245.367 102.478 244.504 107.999 243.316C107.999 243.316 107.999 243.356 108.034 243.37L114.399 253.925L114.921 254.803C116.302 256.775 118.693 257.302 120.975 257.105C122.427 257.033 123.821 256.517 124.968 255.626C128.508 252.668 125.185 248.655 123.351 245.83" fill="white"/>
<path opacity="0.77" d="M128.7 253.289C131.165 256.598 135.78 257.677 139.216 255.409C141.302 254.029 142.524 251.278 140.764 247.028C141.085 247.497 141.376 247.911 141.661 248.29C145.221 253.127 150.738 250.213 150.738 250.213C155.214 247.802 154.46 243.804 152.503 238.943C150.587 234.129 148.074 229.574 145.024 225.386C147.02 223.517 149.392 221.629 151.891 222.457C154.588 223.355 155.342 226.737 155.648 229.556C155.791 230.868 155.934 232.164 156.077 233.476L158.236 252.782C158.956 259.191 159.676 265.693 161.238 271.95C162.047 275.332 163.165 278.633 164.581 281.81C166.562 286.238 169.362 290.253 172.834 293.642C177.164 289.352 180.955 284.551 184.124 279.345C187.155 280.336 189.828 282.198 191.809 284.697C193.791 287.196 194.995 290.222 195.27 293.4V293.563C196.493 305.104 185.381 313.776 176.043 319.11C165.256 325.312 153.232 329.956 141.42 333.816C136.549 335.413 130.219 336.774 125.077 335.108C124.523 334.931 123.983 334.715 123.46 334.462C118.333 331.948 114.901 326.677 112.224 321.861C99.4064 298.813 94.082 272.349 91.2769 246.141C96.8872 245.367 102.478 244.504 107.999 243.316C107.999 243.316 107.999 243.356 108.034 243.37L114.399 253.925L114.921 254.803C116.302 256.775 118.693 257.302 120.975 257.105C122.427 257.033 123.821 256.517 124.968 255.626C128.508 252.668 125.185 248.655 123.351 245.83" fill="#3FBDF1"/>
<path opacity="0.77" d="M130.214 254.852C132.398 257.81 136.13 257.436 139.216 255.409C141.08 254.177 142.608 254.537 141.035 250.736C141.326 251.15 141.366 249.75 141.622 250.06C144.802 254.379 141.661 248.276 141.661 248.276C146.098 253.881 155.756 248.601 153.986 244.268C152.113 239.599 150.141 232.697 147.642 229.246C149.614 227.382 149.234 227.658 151.743 229.142C152.417 229.575 152.982 230.159 153.391 230.848C153.802 231.537 154.046 232.311 154.105 233.111C154.307 234.989 154.509 236.789 154.711 238.623L156.634 255.878C157.28 261.611 157.921 267.404 159.316 272.985C160.037 276.003 161.037 278.947 162.303 281.78C164.068 285.68 169.738 292.172 172.834 295.145C176.684 291.324 181.299 284.299 184.124 279.63C189.547 281.297 189.31 286.483 189.694 292.148V292.296C190.789 302.594 180.87 310.33 172.558 315.097C162.925 320.633 152.192 324.774 141.647 328.226C137.298 329.655 131.649 330.888 127.059 329.379C126.564 329.223 126.081 329.03 125.614 328.802C121.039 326.554 117.973 321.856 115.582 317.552C105.115 298.754 100.259 277.412 97.5872 256.016C97.391 254.415 97.8244 252.8 98.7956 251.513C99.7668 250.225 101.2 249.365 102.793 249.114C105.796 248.621 108.788 248.128 111.761 247.467L111.845 247.507L117.524 256.928C118.762 258.678 118.964 257.307 121 257.13C122.287 257.017 124.781 256.765 125.777 255.932C128.937 253.299 127.152 252.21 125.516 249.691" fill="#3FBDF1"/>
</g>
<path d="M235.376 345.442C235.376 345.442 219.003 340.058 218.757 349.109" stroke="black" stroke-width="5.47" stroke-miterlimit="10"/>
<path opacity="0.54" d="M88.8217 437.645L56.7126 355.383C56.3148 353.791 56.2852 352.13 56.6254 350.525C56.966 348.92 57.6681 347.413 58.6777 346.12C59.6879 344.827 60.979 343.781 62.4541 343.062C63.9287 342.342 65.5482 341.969 67.1889 341.969H194.728C197.592 341.968 200.372 342.932 202.622 344.705C204.871 346.477 206.458 348.956 207.127 351.74L242.278 433.982C242.658 435.569 242.673 437.221 242.323 438.814C241.973 440.408 241.266 441.901 240.256 443.182C239.246 444.463 237.959 445.498 236.491 446.211C235.023 446.923 233.413 447.293 231.782 447.293H101.191C98.3484 447.295 95.5872 446.346 93.346 444.598C91.1048 442.85 89.5124 440.403 88.8217 437.645Z" fill="white"/>
<path d="M240.705 359.317C240.705 359.317 243.362 361.753 242.352 365.233C241.602 367.812 239.039 369.438 236.5 368.556C228.415 365.761 221.133 361.013 219.358 352.943C218.52 348.857 218.338 344.663 218.821 340.519C219.21 336.679 219.777 332.532 221.069 328.879C223.041 323.269 229.08 319.359 234.942 322.061" stroke="black" stroke-width="5.47" stroke-miterlimit="10"/>
<path d="M88.8217 437.645L56.7126 355.383C56.3148 353.791 56.2852 352.13 56.6254 350.525C56.966 348.92 57.6681 347.413 58.6777 346.12C59.6879 344.827 60.979 343.781 62.4541 343.062C63.9287 342.342 65.5482 341.969 67.1889 341.969H194.728C197.592 341.968 200.372 342.932 202.622 344.705C204.871 346.477 206.458 348.956 207.127 351.74L242.278 433.982C242.658 435.569 242.673 437.221 242.323 438.814C241.973 440.408 241.266 441.901 240.256 443.182C239.246 444.463 237.959 445.498 236.491 446.211C235.023 446.923 233.413 447.293 231.782 447.293H101.191C98.3484 447.295 95.5872 446.346 93.346 444.598C91.1048 442.85 89.5124 440.403 88.8217 437.645Z" fill="#3FBDF1"/>
<path d="M88.8217 437.645L56.7126 355.383C56.3148 353.791 56.2852 352.13 56.6254 350.525C56.966 348.92 57.6681 347.413 58.6777 346.12C59.6879 344.827 60.979 343.781 62.4541 343.062C63.9287 342.342 65.5482 341.969 67.1889 341.969H194.728C197.592 341.968 200.372 342.932 202.622 344.705C204.871 346.477 206.458 348.956 207.127 351.74L242.278 433.982C242.658 435.569 242.673 437.221 242.323 438.814C241.973 440.408 241.266 441.901 240.256 443.182C239.246 444.463 237.959 445.498 236.491 446.211C235.023 446.923 233.413 447.293 231.782 447.293H101.191C98.3485 447.295 95.5872 446.346 93.346 444.598C91.1048 442.85 89.5124 440.403 88.8217 437.645Z" stroke="black" stroke-width="5.47" stroke-linecap="square" stroke-linejoin="round"/>
<path d="M93.52 434.332L63.8956 358.41C63.5293 356.942 63.5027 355.409 63.8172 353.929C64.1318 352.448 64.7796 351.058 65.7118 349.866C66.6436 348.673 67.8352 347.708 69.1954 347.045C70.5561 346.381 72.0499 346.036 73.5634 346.036H191.223C193.864 346.035 196.429 346.924 198.504 348.559C200.579 350.194 202.044 352.48 202.66 355.048L235.095 430.926C235.445 432.39 235.459 433.914 235.135 435.384C234.812 436.855 234.159 438.232 233.227 439.414C232.295 440.595 231.107 441.551 229.753 442.208C228.398 442.865 226.913 443.206 225.407 443.206H104.928C102.31 443.209 99.7658 442.337 97.6997 440.73C95.633 439.122 94.1624 436.871 93.52 434.332Z" fill="#3FBDF1"/>
<path d="M345.33 422.422L367.889 474.626" stroke="black" stroke-width="5.47" stroke-miterlimit="10"/>
<path d="M452.35 474.626H8.65002" stroke="black" stroke-width="5.47" stroke-miterlimit="10"/>
<path d="M242.514 239.011C238.856 242.625 233.394 242.62 230.283 239.277" stroke="black" stroke-width="5.47" stroke-miterlimit="10"/>
<path d="M145.024 225.37C147.02 223.501 149.392 221.613 151.891 222.441C154.588 223.338 155.342 226.72 155.648 229.54C156.512 237.29 157.375 245.032 158.236 252.766C159.331 262.626 160.484 272.722 164.581 281.784C166.562 286.212 169.362 290.227 172.834 293.616" stroke="black" stroke-width="5.47" stroke-miterlimit="10"/>
<path d="M195.27 293.556V293.394C194.995 290.216 193.791 287.19 191.809 284.691C189.828 282.192 187.154 280.331 184.124 279.338C180.955 284.545 177.164 289.346 172.834 293.635C161.482 304.924 146.898 312.399 131.106 315.027C131.866 318.049 133.428 320.8 134.508 323.708C135.588 326.617 136.125 329.984 134.814 332.789C133.157 336.369 128.405 335.9 125.102 335.107C125.067 335.107 125.047 335.107 125.013 335.107" stroke="black" stroke-width="5.47" stroke-miterlimit="10"/>
<path d="M108.009 243.311C102.488 244.499 96.897 245.362 91.2866 246.136C94.0918 272.344 99.3965 298.808 112.234 321.856C114.911 326.672 118.342 331.943 123.47 334.457C123.993 334.711 124.533 334.927 125.087 335.103C130.229 336.794 136.559 335.408 141.43 333.811C153.262 329.946 165.266 325.307 176.053 319.105C185.366 313.766 196.478 305.099 195.28 293.558C195.164 292.287 194.904 291.033 194.506 289.821" stroke="black" stroke-width="5.47" stroke-miterlimit="10"/>
<path d="M200.338 191.032C201.166 194.482 203.054 197.585 205.739 199.904C208.423 202.224 211.767 203.642 215.301 203.959C215.594 202.536 216.231 201.205 217.154 200.084C221.098 195.435 222.78 204.156 235.395 197.895C252.877 189.199 259.513 194.188 259.513 194.188C260.095 194.622 260.006 198.624 260.105 199.354C260.598 203.51 261.041 207.646 261.529 211.797C261.825 214.331 262.116 216.846 262.392 219.36C262.63 218.932 262.894 218.519 263.181 218.122C264.773 212.487 267.618 205.832 273.751 208.697C274.993 209.302 276.074 210.192 276.906 211.294C280.973 216.638 277.892 221.8 273.637 225.621C272.571 226.807 271.379 227.872 270.083 228.801C270.783 230.251 273.642 236.004 273.642 236.024C273.938 236.605 283.931 225.296 284.676 224.063C285.788 221.044 286.384 217.859 286.441 214.642C286.603 201.415 281.22 186.018 270.507 178.431C267.85 176.553 268.698 174.743 268.535 172.19C268.524 172.052 268.471 171.92 268.383 171.813C268.296 171.705 268.178 171.627 268.045 171.588C267.912 171.549 267.77 171.552 267.639 171.595C267.507 171.638 267.392 171.72 267.307 171.83C263.95 175.695 255.638 175.311 255.638 175.311C226.788 168.083 217.09 180.911 211.268 183.199C208.892 184.098 206.277 184.142 203.873 183.322C203.732 184.118 203.375 184.86 202.843 185.468C202.31 186.076 201.622 186.527 200.851 186.773L200.999 188.109C201.125 189.131 200.891 190.164 200.338 191.032Z" fill="#3FBDF1"/>
<path d="M215.321 203.98C211.787 203.662 208.443 202.244 205.758 199.925C203.074 197.606 201.185 194.503 200.358 191.053C200.034 189.73 199.83 188.38 199.747 187.021L199.973 186.996C200.284 186.973 200.589 186.906 200.881 186.799C201.651 186.553 202.339 186.102 202.872 185.494C203.405 184.886 203.761 184.143 203.903 183.348C203.993 182.906 204.011 182.453 203.957 182.007L203.217 175.479C203.217 175.479 208.433 179.359 214.221 177.092C220.009 174.824 229.726 161.996 258.591 169.204C258.591 169.204 265.109 169.588 268.451 165.723C268.535 165.613 268.651 165.531 268.782 165.488C268.914 165.444 269.056 165.442 269.189 165.481C269.321 165.52 269.44 165.599 269.527 165.706C269.615 165.813 269.667 165.945 269.679 166.083C269.851 168.641 270.798 170.451 273.46 172.324C284.173 179.916 289.557 195.308 289.389 208.535C289.34 214.022 287.515 219.44 284.7 224.089C283.956 225.322 273.963 236.631 273.667 236.049C273.667 236.049 270.808 230.276 270.108 228.827L269.94 228.506L270.261 228.294C271.451 227.486 272.587 226.602 273.662 225.647C277.912 221.826 280.998 216.665 276.931 211.321C276.098 210.218 275.017 209.328 273.776 208.722C267.623 205.858 264.798 212.514 263.206 218.149C262.897 219.225 262.706 220.333 262.639 221.452C262.565 220.761 262.491 220.096 262.417 219.406C262.141 216.891 261.85 214.377 261.554 211.843C261.061 207.692 260.598 203.556 260.129 199.4C260.055 198.69 260.129 194.667 259.538 194.233C259.538 194.233 252.897 189.244 235.42 197.94C222.804 204.202 221.123 195.475 217.179 200.129C216.255 201.251 215.619 202.581 215.326 204.004C215.235 204.461 215.178 204.924 215.153 205.39C215.144 205.45 215.144 205.511 215.153 205.572C215.094 206.593 215.074 207.608 215.049 208.604C214.956 218.213 216.011 228.25 219.782 237.173C224.367 247.99 236.5 258.658 249.116 253.615C253.06 252.032 256.595 249.484 259.829 246.777" stroke="black" stroke-width="5.47" stroke-miterlimit="10"/>
<path d="M223.954 227.414C225.209 226.994 225.814 225.423 225.306 223.905C224.798 222.387 223.369 221.496 222.114 221.916C220.859 222.336 220.254 223.907 220.762 225.426C221.27 226.944 222.699 227.834 223.954 227.414Z" fill="black"/>
<path d="M242.725 226.813C243.98 226.394 244.586 224.823 244.078 223.304C243.57 221.786 242.141 220.895 240.886 221.315C239.631 221.735 239.026 223.307 239.533 224.825C240.041 226.343 241.47 227.233 242.725 226.813Z" fill="black"/>
<path d="M235.548 230.065C235.548 230.065 229.302 233.61 228.922 229.932C228.804 228.798 227.276 217.691 227.276 217.691C227.276 217.691 222.227 212.341 214.492 216.295" stroke="black" stroke-width="5.47" stroke-miterlimit="10"/>
<path d="M234.143 214.578C234.143 214.578 244.23 209.539 250.905 216.801" stroke="black" stroke-width="5.47" stroke-miterlimit="10"/>
<path d="M243.392 254.852L244.55 260.798C240.897 264.165 238.314 268.991 239.068 274.074C239.739 278.58 243.426 282.776 247.208 285.137C253.528 289.081 261.934 288.77 268.737 286.261C275.388 283.796 281.141 279.118 285.312 273.409C287.276 270.649 288.584 267.477 289.137 264.135V264.076" stroke="black" stroke-width="5.47" stroke-miterlimit="10"/>
<path d="M244.551 260.797L246.808 271.535" stroke="black" stroke-width="5.47" stroke-miterlimit="10"/>
<path d="M276.482 233.461L279.894 256.114C280.23 258.332 281.351 260.355 283.053 261.816C284.755 263.277 286.924 264.079 289.167 264.076C299.785 265.797 310.259 268.308 320.502 271.59C360.519 284.496 385.149 320.544 392.105 360.823C394.999 377.688 395.216 395.377 391.583 412.149C389.517 421.59 386.53 432.194 379.593 439.264C370.586 448.483 356.762 444.687 346.118 440.521C313.073 427.668 285.588 404.803 261.855 378.625C249.165 364.624 232.768 353.403 232.768 353.403" stroke="black" stroke-width="5.47" stroke-miterlimit="10"/>
<path d="M104.44 417.341C100.733 417.306 97.5035 414.314 96.6703 410.148C95.0237 401.954 94.5898 389.284 106.604 386.518C121.616 383.067 133.162 399.415 138.822 409.748C140.725 413.199 138.57 417.636 135.026 417.636L104.44 417.341Z" fill="#D7E8F0"/>
<path d="M109.396 379.561C112.583 377.44 112.632 371.912 109.505 367.213C106.378 362.514 101.26 360.423 98.0728 362.544C94.8856 364.665 94.8368 370.193 97.9634 374.892C101.09 379.592 106.209 381.682 109.396 379.561Z" fill="#D7E8F0"/>
<path d="M356.102 453.125C355.87 453.16 355.609 453.194 355.382 453.249H355.293L320.226 453.066L267.608 452.795C267.406 452.795 267.209 452.795 267.012 452.795C266.621 452.786 266.231 452.756 265.843 452.706C269.408 452.292 272.713 450.634 275.176 448.023C277.638 445.413 279.102 442.017 279.307 438.434C279.317 438.249 279.317 438.063 279.307 437.877V437.591C279.293 434.085 278.071 430.692 275.848 427.981C273.625 425.27 270.536 423.407 267.1 422.707C266.741 422.619 266.346 422.564 265.967 422.51C266.563 422.456 267.155 422.417 267.731 422.417L312.185 422.653L320.369 422.688L331.407 422.742C335.187 423.087 338.702 424.829 341.265 427.629C343.827 430.427 345.254 434.082 345.266 437.877C345.266 438.593 345.212 439.309 345.103 440.017C344.577 443.63 342.772 446.934 340.017 449.329C337.261 451.724 333.737 453.05 330.086 453.066H356.797C355.259 453.066 355.688 453.066 356.102 453.125Z" fill="white"/>
<path d="M284.972 471.462C285.973 472.469 287.165 473.268 288.477 473.811C289.79 474.355 291.198 474.632 292.618 474.627H266.795C261.865 474.627 259.173 473.424 257.211 471.462C255.194 469.437 254.059 466.698 254.051 463.84C254.051 457.924 258.902 453.073 266.795 453.073H292.618C290.486 453.07 288.401 453.699 286.628 454.883C284.854 456.065 283.471 457.748 282.655 459.717C281.839 461.687 281.625 463.855 282.042 465.945C282.459 468.036 283.487 469.956 284.996 471.462H284.972Z" fill="#D7E8F0"/>
<path d="M370.256 438.148C370.249 440.425 369.719 442.67 368.708 444.71C367.985 446.252 366.994 447.653 365.779 448.846C363.777 450.83 361.263 452.218 358.517 452.854C357.385 453.115 356.228 453.248 355.066 453.249C355.303 453.194 355.559 453.16 355.786 453.125C355.372 453.086 354.943 453.071 356.486 453.071H329.771C333.424 453.057 336.951 451.731 339.709 449.335C342.467 446.939 344.273 443.632 344.797 440.016C344.906 439.308 344.96 438.593 344.96 437.877C344.948 434.081 343.521 430.426 340.957 427.627C338.393 424.828 334.877 423.086 331.097 422.742L345.517 422.816L355.15 422.87C359.176 422.904 363.024 424.53 365.855 427.393C368.685 430.256 370.267 434.122 370.256 438.148Z" fill="#3FBDF1"/>
<path d="M370.256 438.144C370.226 442.173 368.601 446.024 365.736 448.857C362.872 451.689 359.001 453.27 354.973 453.255L267.258 452.801C266.671 452.801 266.085 452.757 265.493 452.698C269.191 452.279 272.606 450.518 275.092 447.749C277.578 444.98 278.961 441.396 278.981 437.674C279 433.954 277.654 430.355 275.197 427.56C272.74 424.765 269.344 422.969 265.651 422.511C266.237 422.45 266.826 422.42 267.416 422.423L355.13 422.876C359.158 422.904 363.011 424.526 365.846 427.387C368.681 430.248 370.266 434.116 370.256 438.144Z" stroke="black" stroke-width="5.47" stroke-linecap="square" stroke-linejoin="round"/>
<path d="M344.95 437.872C344.942 441.9 343.339 445.76 340.491 448.607C337.643 451.456 333.783 453.059 329.756 453.067H267.347C266.757 453.063 266.168 453.03 265.582 452.968C269.276 452.529 272.682 450.751 275.154 447.969C277.624 445.187 278.989 441.596 278.989 437.875C278.989 434.154 277.624 430.563 275.154 427.781C272.682 424.999 269.276 423.22 265.582 422.782C266.169 422.727 266.76 422.688 267.347 422.688H329.756C333.781 422.697 337.639 424.3 340.486 427.145C343.333 429.99 344.938 433.847 344.95 437.872Z" stroke="black" stroke-width="5.47" stroke-linecap="square" stroke-linejoin="round"/>
<path d="M254.051 463.843C254.05 465.257 254.329 466.657 254.87 467.964C255.412 469.27 256.205 470.457 257.206 471.455C259.178 473.427 261.855 474.625 266.79 474.625H356.481C354.938 474.625 355.357 474.596 355.776 474.556C353.152 474.248 350.732 472.986 348.976 471.011C347.22 469.037 346.251 466.486 346.251 463.843C346.251 461.201 347.22 458.651 348.976 456.676C350.732 454.701 353.152 453.44 355.776 453.131C355.357 453.091 354.938 453.062 356.481 453.062H266.79C258.892 453.066 254.051 457.918 254.051 463.843Z" stroke="black" stroke-width="5.47" stroke-linecap="square" stroke-linejoin="round"/>
<path d="M281.807 463.843C281.813 466.701 282.951 469.44 284.972 471.46C286.992 473.481 289.731 474.619 292.588 474.625H354.524C354.938 474.625 355.357 474.596 355.776 474.556C353.152 474.248 350.732 472.986 348.976 471.011C347.22 469.037 346.251 466.486 346.251 463.843C346.251 461.201 347.22 458.651 348.976 456.676C350.732 454.701 353.152 453.44 355.776 453.131C355.357 453.091 354.938 453.062 354.524 453.062H292.588C289.731 453.069 286.993 454.208 284.973 456.228C282.953 458.248 281.814 460.986 281.807 463.843Z" stroke="black" stroke-width="5.47" stroke-linecap="square" stroke-linejoin="round"/>
<path d="M181.407 381.582H153.74C152.474 381.58 151.236 381.209 150.177 380.516C149.118 379.823 148.283 378.837 147.775 377.678C147.578 377.246 147.494 376.772 147.531 376.299C147.567 375.826 147.722 375.371 147.982 374.974C148.242 374.578 148.597 374.253 149.017 374.031C149.436 373.809 149.903 373.697 150.378 373.704H179.79C178.405 376.036 179.11 379.275 181.407 381.582Z" fill="#D7E8F0"/>
<path d="M199.298 378.732C199.297 379.486 198.997 380.209 198.463 380.742C197.93 381.275 197.208 381.575 196.453 381.576H181.407C179.11 379.274 178.405 376.035 179.79 373.688H193.076C194.341 373.689 195.578 374.056 196.638 374.745C197.697 375.435 198.534 376.418 199.047 377.573C199.206 377.94 199.291 378.333 199.298 378.732Z" fill="#3FBDF1"/>
<path d="M192.376 381.582C192.298 381.732 192.208 381.876 192.105 382.011C190.133 384.708 185.849 384.969 182.521 382.533C182.128 382.243 181.756 381.925 181.407 381.582C179.11 379.28 178.405 376.041 179.79 373.694C179.868 373.544 179.959 373.4 180.061 373.265C182.033 370.549 186.298 370.307 189.625 372.723C190.026 373.022 190.403 373.352 190.754 373.709C193.032 376.001 193.742 379.22 192.376 381.582Z" fill="white"/>
<path d="M206.254 396.102C206.249 396.856 205.946 397.579 205.41 398.111C204.874 398.642 204.15 398.941 203.395 398.941H174.362C175.762 396.585 175.062 393.37 172.76 391.053H200.033C201.299 391.054 202.538 391.422 203.598 392.115C204.658 392.807 205.494 393.793 206.003 394.953C206.166 395.314 206.251 395.705 206.254 396.102Z" fill="#3FBDF1"/>
<path d="M174.362 398.94H160.701C159.437 398.941 158.199 398.574 157.139 397.884C156.079 397.194 155.242 396.211 154.731 395.055C154.57 394.693 154.484 394.302 154.479 393.906C154.479 393.533 154.552 393.164 154.694 392.819C154.837 392.474 155.046 392.161 155.31 391.897C155.573 391.633 155.887 391.424 156.232 391.281C156.577 391.139 156.946 391.066 157.319 391.066H172.76C175.062 393.369 175.777 396.583 174.362 398.94Z" fill="#D7E8F0"/>
<path d="M174.362 398.94C174.298 399.095 174.213 399.241 174.111 399.374C172.139 402.085 167.869 402.332 164.546 399.911C164.144 399.612 163.766 399.282 163.413 398.925C161.13 396.623 160.43 393.409 161.796 391.037C161.874 390.886 161.965 390.741 162.067 390.604C164.039 387.907 168.323 387.646 171.646 390.086C172.042 390.373 172.414 390.691 172.76 391.037C175.062 393.369 175.777 396.584 174.362 398.94Z" fill="white"/>
<path d="M184.035 416.182H166.652C165.388 416.18 164.151 415.812 163.092 415.123C162.032 414.433 161.195 413.452 160.681 412.297C160.486 411.864 160.402 411.389 160.439 410.915C160.476 410.442 160.631 409.985 160.891 409.587C161.151 409.19 161.507 408.864 161.926 408.641C162.346 408.417 162.814 408.303 163.289 408.308H182.418C181.047 410.67 181.752 413.879 184.035 416.182Z" fill="#3FBDF1"/>
<path d="M212.205 413.361C212.201 414.111 211.9 414.829 211.368 415.358C210.835 415.886 210.115 416.182 209.365 416.181H184.035C181.752 413.879 181.047 410.664 182.418 408.293H205.983C207.249 408.293 208.488 408.662 209.548 409.354C210.608 410.047 211.444 411.033 211.953 412.193C212.116 412.561 212.201 412.958 212.205 413.361Z" fill="#D7E8F0"/>
<path d="M195.004 416.181C194.925 416.333 194.834 416.477 194.733 416.615C192.761 419.327 188.496 419.573 185.169 417.152C184.769 416.851 184.392 416.522 184.04 416.166C181.757 413.864 181.052 410.65 182.423 408.278C182.498 408.126 182.587 407.981 182.689 407.845C184.661 405.148 188.945 404.916 192.273 407.327C192.668 407.614 193.041 407.932 193.387 408.278C195.684 410.61 196.384 413.844 195.004 416.181Z" fill="white"/>
<path d="M63.6737 259.008L64.1075 259.132L63.9449 259.763C63.8418 259.516 63.7511 259.264 63.6737 259.008Z" fill="#353642"/>
<path d="M140.826 298.45C147.316 296.545 150.726 288.695 148.443 280.918C146.16 273.141 139.048 268.38 132.559 270.285C126.069 272.19 122.659 280.039 124.942 287.817C127.225 295.594 134.337 300.355 140.826 298.45Z" fill="#D7E8F0"/>
</svg>
